<svg id="Layer_1" enable-background="new 0 0 512 512" height="512" viewBox="0 0 512 512" width="512" xmlns="http://www.w3.org/2000/svg"><g><g><g><g id="XMLID_700_"><g id="XMLID_701_"><g id="XMLID_702_"><g id="XMLID_703_"><g id="XMLID_704_"><g id="XMLID_705_"><g id="XMLID_706_"><g id="XMLID_707_"><g id="XMLID_722_"><g id="XMLID_723_"><g id="XMLID_724_"><g id="XMLID_725_"><g id="XMLID_726_"><g id="XMLID_727_"><g id="XMLID_728_"><circle cx="256" cy="256" fill="#6b3a16" r="256"/></g></g></g></g></g></g></g></g></g></g></g></g></g></g></g></g></g><path d="m512 256c0-26.648-4.076-52.343-11.631-76.501l-88.968-88.968-270.61 232.143-90.822 15.733 171.228 171.229c11.382 1.547 22.997 2.364 34.803 2.364 141.385 0 256-114.615 256-256z" fill="#3a1903"/><g><path d="m100.828 314.708h118.394v54.4h-118.394z" fill="#ff7038" transform="matrix(.707 .707 -.707 .707 288.635 -13.012)"/><path d="m153.754 333.238h54.4v59.2h-54.4z" fill="#c14e00" transform="matrix(.707 -.707 .707 .707 -203.565 234.227)"/><path d="m411.401 90.531s-68.974-14.743-125.111 41.394l83.717 83.717c54.66-54.66 41.394-125.111 41.394-125.111z" fill="#ffec29"/><g><path d="m370.007 215.647-41.861-41.861 83.255-83.255s12.586 66.864-37.293 120.845c-1.323 1.435-2.687 2.857-4.101 4.271z" fill="#ecbe00"/></g><path d="m173.13 136.916h160.592v223.179h-160.592z" fill="#ff9d21" transform="matrix(.707 .707 -.707 .707 249.947 -106.414)"/><path d="m241.667 165.305h80.296v223.179h-80.296z" fill="#ff7038" transform="matrix(.707 .707 -.707 .707 278.336 -118.173)"/><path d="m44.976 350.462h160.592v52.396h-160.592z" fill="#ffec29" transform="matrix(.707 .707 -.707 .707 303.03 21.741)"/><path d="m127.46 364.902h52.4v80.3h-52.4z" fill="#ecbe00" transform="matrix(.707 -.707 .707 .707 -241.41 227.292)"/></g></g></svg>